<?xml version="1.0"?><svg fill="#000" xmlns="http://www.w3.org/2000/svg"  viewBox="0 0 100 100" width="44px" height="44px">    <path d="M 30.921875 17.654297 C 23.753875 17.654297 17.921875 23.486297 17.921875 30.654297 L 17.921875 69.654297 C 17.921875 76.822297 23.753875 82.654297 30.921875 82.654297 L 69.921875 82.654297 C 77.089875 82.654297 82.921875 76.822297 82.921875 69.654297 L 82.921875 30.654297 C 82.921875 23.485297 77.089875 17.654297 69.921875 17.654297 L 30.921875 17.654297 z M 30.921875 19.654297 L 69.921875 19.654297 C 75.986875 19.654297 80.921875 24.589297 80.921875 30.654297 L 80.921875 69.654297 C 80.921875 75.719297 75.986875 80.654297 69.921875 80.654297 L 30.921875 80.654297 C 24.856875 80.654297 19.921875 75.719297 19.921875 69.654297 L 19.921875 30.654297 C 19.921875 24.589297 24.856875 19.654297 30.921875 19.654297 z M 33.757812 22.652344 C 27.781813 22.652344 22.921875 27.514234 22.921875 33.490234 L 22.921875 66.816406 C 22.921875 72.792406 27.781813 77.652344 33.757812 77.652344 L 67.083984 77.652344 C 73.059984 77.652344 77.921875 72.792406 77.921875 66.816406 L 77.921875 48.154297 C 77.921875 47.877297 77.698875 47.654297 77.421875 47.654297 C 77.145875 47.654297 76.921875 47.878297 76.921875 48.154297 L 76.921875 66.816406 C 76.921875 72.240406 72.507984 76.654297 67.083984 76.654297 L 33.757812 76.654297 C 28.333813 76.654297 23.921875 72.240406 23.921875 66.816406 L 23.921875 33.490234 C 23.921875 28.066234 28.333812 23.652344 33.757812 23.652344 L 67.421875 23.652344 C 67.697875 23.652344 67.921875 23.428344 67.921875 23.152344 C 67.921875 22.876344 67.697875 22.652344 67.421875 22.652344 L 33.757812 22.652344 z M 50.412109 37.5 C 50.345109 37.5 43.62425 37.504562 39.15625 37.851562 L 38.96875 37.871094 C 38.23575 37.945094 36.869531 38.082219 35.644531 39.449219 C 34.589531 40.589219 34.258141 43.011094 34.244141 43.121094 C 34.241141 43.149094 33.921875 45.943172 33.921875 48.701172 L 33.921875 51.289062 C 33.921875 54.049062 34.240141 56.842906 34.244141 56.878906 C 34.258141 56.981906 34.589625 59.39925 35.640625 60.53125 C 36.775625 61.79625 38.195969 61.979844 39.042969 62.089844 C 39.195969 62.109844 39.329281 62.125297 39.488281 62.154297 C 42.042281 62.415297 50.074875 62.497953 50.421875 62.501953 C 50.488875 62.501953 57.2165 62.485578 61.6875 62.142578 L 61.880859 62.121094 C 62.612859 62.044094 63.976312 61.901063 65.195312 60.539062 C 66.251312 59.401063 66.583656 56.982094 66.597656 56.871094 C 66.600656 56.843094 66.919922 54.050016 66.919922 51.291016 L 66.919922 48.703125 C 66.919922 45.944125 66.600656 43.149094 66.597656 43.121094 C 66.596656 43.119094 66.595703 43.116281 66.595703 43.113281 C 66.582703 43.010281 66.251172 40.589078 65.201172 39.455078 C 63.972172 38.082078 62.606047 37.945094 61.873047 37.871094 L 61.662109 37.849609 C 57.214109 37.504609 50.494109 37.5 50.412109 37.5 z M 77.421875 37.654297 C 77.145875 37.654297 76.921875 37.877297 76.921875 38.154297 L 76.921875 40.154297 C 76.921875 40.430297 77.145875 40.654297 77.421875 40.654297 C 77.697875 40.654297 77.921875 40.430297 77.921875 40.154297 L 77.921875 38.154297 C 77.921875 37.878297 77.697875 37.654297 77.421875 37.654297 z M 50.427734 38.5 C 50.494734 38.5 57.1765 38.50475 61.5625 38.84375 L 61.771484 38.865234 C 62.412484 38.930234 63.486891 39.039859 64.462891 40.130859 C 65.157891 40.880859 65.522469 42.625234 65.605469 43.240234 C 65.619469 43.363234 65.921875 46.052172 65.921875 48.701172 L 65.921875 51.289062 C 65.921875 53.989063 65.608469 56.728047 65.605469 56.748047 C 65.524469 57.359047 65.158031 59.108234 64.457031 59.865234 C 63.488031 60.946234 62.418344 61.059953 61.777344 61.126953 L 61.585938 61.146484 C 57.176938 61.483484 50.487781 61.5 50.425781 61.5 C 50.342781 61.499 42.100672 61.416969 39.638672 61.167969 C 39.507672 61.141969 39.348922 61.120656 39.169922 61.097656 C 38.413922 61.000656 37.271906 60.852422 36.378906 59.857422 C 35.682906 59.107422 35.318281 57.358859 35.238281 56.755859 C 35.234281 56.728859 34.921875 53.990063 34.921875 51.289062 L 34.921875 48.701172 C 34.921875 46.003172 35.233328 43.263141 35.236328 43.244141 C 35.317328 42.633141 35.681766 40.883047 36.384766 40.123047 C 37.357766 39.039047 38.429312 38.930234 39.070312 38.865234 L 39.257812 38.845703 C 43.662813 38.504703 50.345734 38.5 50.427734 38.5 z M 77.421875 41.654297 C 77.145875 41.654297 76.921875 41.878297 76.921875 42.154297 L 76.921875 46.154297 C 76.921875 46.430297 77.145875 46.654297 77.421875 46.654297 C 77.697875 46.654297 77.921875 46.430297 77.921875 46.154297 L 77.921875 42.154297 C 77.921875 41.877297 77.698875 41.654297 77.421875 41.654297 z M 46.425781 43.347656 C 46.338781 43.346656 46.253281 43.367609 46.175781 43.412109 C 46.018781 43.501109 45.921875 43.667656 45.921875 43.847656 L 45.921875 55.847656 C 45.921875 56.027656 46.018781 56.19225 46.175781 56.28125 C 46.251781 56.32425 46.336875 56.347656 46.421875 56.347656 C 46.510875 56.347656 46.598734 56.322391 46.677734 56.275391 L 56.677734 50.275391 C 56.828734 50.185391 56.921875 50.023656 56.921875 49.847656 C 56.921875 49.671656 56.828734 49.508969 56.677734 49.417969 L 46.677734 43.417969 C 46.600234 43.371469 46.512781 43.348656 46.425781 43.347656 z M 46.921875 44.730469 L 55.449219 49.847656 L 46.921875 54.962891 L 46.921875 44.730469 z"/></svg>